<svg width="253" height="280" viewBox="0 0 253 280" fill="none" xmlns="http://www.w3.org/2000/svg">
<path d="M113.349 93.0575L107.285 88.9145C106.271 88.8924 105.351 88.8724 105.214 88.8974C104.908 88.9377 104.627 88.8418 104.273 88.8165C104.076 88.7937 103.381 88.7427 102.762 88.6811C102.595 88.7965 102.517 88.845 102.366 88.9594C101.242 89.8075 100.278 90.8263 99.5636 91.7853C98.8635 92.7596 98.3964 93.7075 98.1819 94.5439C97.9794 95.3792 98.0114 96.0976 98.1144 96.5808C98.2231 97.063 98.3318 97.3231 98.3318 97.3231C98.3318 97.3231 98.2849 97.2722 98.1957 97.1752C98.0991 97.0787 97.9726 96.9247 97.8245 96.7052C97.5389 96.2672 97.1642 95.5178 97.0942 94.4701C97.0232 93.6943 97.1134 92.7817 97.3798 91.8142C96.4907 88.9159 97.7329 82.7841 98.9754 80.0316C98.7531 79.5565 98.5193 79.079 98.2739 78.599C97.404 76.9081 96.4165 75.189 95.3189 73.5184C95.2418 73.3994 95.181 73.316 95.0965 73.1663L94.8187 72.6881C94.6354 72.3688 94.4919 72.0153 94.3424 71.6718C94.0834 70.9619 93.8806 70.2164 93.8085 69.473C93.6334 67.9792 93.8831 66.5716 94.2191 65.3386C94.5665 64.1006 95.0446 62.9962 95.5274 61.9795C96.0058 60.9568 96.5024 60.011 96.9422 59.1276C97.3759 58.2435 97.7379 57.4028 97.9211 56.729C98.0163 56.3879 98.0497 56.1085 98.0451 55.899C98.0483 55.8245 98.0451 55.8245 98.0593 55.8231L98.0835 55.8081C98.0902 55.7939 98.0522 55.7005 98.0384 55.6506L97.9815 55.4689L97.9666 55.4233C97.983 55.4525 97.897 55.2522 98.0107 55.5113L97.9666 55.4012L97.7947 54.96C97.7425 54.8153 97.7041 54.6649 97.6597 54.5174L97.5279 54.6774C97.5279 54.6774 97.5084 54.6493 97.4771 54.5972C97.4498 54.5534 97.4281 54.4981 97.367 54.4055C97.2548 54.2284 97.0857 53.9679 96.8662 53.6639C96.4285 53.0563 95.8055 52.2481 95.0986 51.5454C94.9232 51.3793 94.7413 51.1865 94.5583 51.0383C94.3736 50.8801 94.1879 50.7186 94.0017 50.5932C93.8156 50.4481 93.6305 50.3295 93.4469 50.2329C93.2625 50.1146 93.0831 50.0462 92.9105 49.9792C92.7336 49.8961 92.5745 49.8733 92.4217 49.8441C92.2655 49.8078 92.1298 49.7935 92.0196 49.8081C91.7824 49.8224 91.646 49.8309 91.646 49.8309C91.646 49.8309 91.7564 49.7465 91.9486 49.5975C92.0481 49.5116 92.1827 49.4364 92.3489 49.3723C92.5127 49.2992 92.7098 49.208 92.9286 49.171C93.1478 49.1179 93.3975 49.0608 93.6533 49.0501C93.9175 49.0202 94.1943 49.0102 94.4735 49.0256C94.7647 49.0252 95.0503 49.0559 95.348 49.0883C95.6513 49.115 95.9348 49.1756 96.2364 49.2237C96.6822 49.3064 97.1159 49.4133 97.534 49.5262C97.6895 48.9354 97.8931 48.3759 98.1357 47.8635C99.0809 45.8868 100.375 44.4727 101.588 43.2982C104.068 40.9979 106.328 39.5596 107.738 38.3662C108.442 37.78 108.948 37.2654 109.153 36.8328C109.26 36.6211 109.31 36.4337 109.313 36.3104C109.32 36.1799 109.31 36.1111 109.31 36.1111C109.291 36.1065 109.484 36.3588 109.396 36.9094C109.307 37.4493 108.946 38.1663 108.387 38.9624C107.823 39.7542 107.089 40.6626 106.243 41.6671C105.395 42.6624 104.451 43.7842 103.558 45.039C102.664 46.2812 101.802 47.6839 101.367 49.1464C100.918 50.6153 101.004 52.0229 101.668 53.3656L101.802 53.6169L101.835 53.6807L101.932 53.8995L102.016 54.0719C102.045 54.1404 102.064 54.161 102.103 54.2694L102.22 54.625C102.296 54.8713 102.356 55.1193 102.378 55.2992C102.519 56.1043 102.485 56.8679 102.385 57.5429C102.19 58.9113 101.763 60.0331 101.348 61.0808C100.935 62.1324 100.493 63.1003 100.103 64.0311C99.7104 64.9647 99.3864 65.861 99.158 66.6938C98.9331 67.5273 98.8681 68.2878 98.9246 68.9257C98.9456 69.2496 99.033 69.5404 99.1235 69.8344C99.1935 69.9751 99.2347 70.1223 99.3178 70.262L99.4347 70.4744C99.4773 70.5581 99.5658 70.6907 99.6276 70.798C100.777 72.7066 101.762 74.6595 102.566 76.6323C103.359 78.61 104.003 80.586 104.319 82.6558C104.386 83.0987 104.432 83.5481 104.455 84.0089C104.513 84.2483 104.575 84.4721 104.697 84.5926C104.963 85.2205 105.109 85.0476 105.263 85.2647L105.784 85.4265C105.928 85.4186 106.064 85.42 106.1 85.5056C106.108 85.5277 115.4 88.4227 115.4 88.4227C115.884 88.0001 116.825 86.3886 116.849 83.2919C116.851 82.9327 116.863 82.4576 116.876 81.9056C116.913 80.2293 117.024 75.2695 116.601 73.8163C116.472 73.7197 116.25 73.5597 116.076 73.4332C114.851 72.542 112.799 71.0503 112.512 68.4503C112.307 66.5798 113.053 64.7099 114.794 62.7339C116.695 60.5773 115.861 58.6401 114.667 56.5105C114.59 56.3719 114.507 56.2194 114.423 56.0611L114.362 56.0572C114.362 56.0572 114.369 56.0244 114.38 55.9735C113.981 55.1859 113.651 54.1817 114.165 53.119C114.154 53.1055 114.15 53.0898 114.139 53.077C114.039 52.9494 113.95 52.809 113.835 52.6707C113.703 52.5378 113.568 52.4021 113.431 52.2656C113.125 52.0022 112.8 51.7243 112.417 51.4734C111.678 50.9552 110.833 50.4781 110.045 50.0088C109.255 49.5483 108.511 49.0851 107.9 48.6639C107.589 48.4664 107.317 48.2377 107.078 48.062C106.831 47.8852 106.64 47.7131 106.482 47.5702C106.164 47.288 105.982 47.1255 105.982 47.1255C105.982 47.1255 106.208 47.2192 106.6 47.382C106.796 47.4651 107.036 47.5656 107.315 47.6482C107.596 47.7341 107.89 47.8478 108.242 47.9326C108.934 48.1229 109.74 48.3061 110.63 48.4814C111.518 48.6639 112.477 48.8363 113.484 49.1186C113.981 49.244 114.498 49.4343 115.009 49.6367C115.081 49.6699 115.149 49.7037 115.22 49.7351C116.187 44.9331 116.993 36.2184 115.962 32.6855C115.32 30.4745 114.993 27.9335 114.878 25.3292C114.868 25.2817 114.861 25.2356 114.85 25.1796C114.796 24.8389 114.7 24.3542 114.553 23.7684C114.429 23.1735 114.209 22.5093 113.999 21.768C113.734 21.0629 113.495 20.2613 113.142 19.5263C112.973 19.1547 112.819 18.7627 112.632 18.404C112.438 18.0453 112.245 17.6927 112.06 17.352C111.881 16.9933 111.675 16.6944 111.476 16.4027C111.276 16.1038 111.086 15.8211 110.911 15.5612C110.739 15.2894 110.515 15.0842 110.351 14.8789C110.179 14.6798 110.027 14.5059 109.902 14.3634C109.655 14.0769 109.513 13.9134 109.513 13.9134C109.513 13.9134 109.705 14.0136 110.04 14.1875C110.208 14.2755 110.412 14.3814 110.644 14.5031C110.875 14.6337 111.151 14.7402 111.418 14.934C111.945 15.3117 112.66 15.7304 113.29 16.2749C113.615 16.5476 113.949 16.8284 114.289 17.114C114.553 17.344 114.801 17.5963 115.054 17.8471C115.385 14.0032 116.016 10.595 116.604 8.57944C117.143 6.73161 116.963 4.94316 116.11 3.67264C115.214 2.33604 113.301 0.51673 111.027 0.285347C109.673 0.148006 101.144 0.608884 103.925 4.88614C104.582 5.89866 105.317 7.0281 105.947 8.2668C106.561 9.50311 107.109 10.8986 107.093 12.3307C107.106 13.0344 106.945 13.7195 106.7 14.294C106.568 14.581 106.443 14.8537 106.269 15.0837C106.118 15.3284 105.951 15.5417 105.769 15.7275C105.441 16.1252 105.063 16.3979 104.756 16.6559C104.422 16.8793 104.149 17.0902 103.899 17.2266C103.403 17.4993 103.122 17.6552 103.122 17.6552C103.122 17.6552 103.355 17.4352 103.762 17.0503C103.964 16.8622 104.174 16.5927 104.427 16.3124C104.646 16.0017 104.922 15.6724 105.11 15.2624C105.224 15.069 105.315 14.8566 105.383 14.6318C105.474 14.4166 105.512 14.18 105.554 13.9466C105.623 13.4748 105.611 12.9859 105.469 12.5003C105.233 11.5277 104.567 10.5798 103.797 9.69555C102.251 7.92089 98.5992 2.56126 96.4172 1.74068C95.1079 1.2489 92.7112 1.74071 91.4225 2.17166C89.6433 2.76652 85.7658 7.04567 82.5255 9.80103C81.5352 10.6453 80.5314 11.4959 79.5357 12.3122C79.5584 12.8966 79.6341 13.5271 79.8025 14.1629C82.1746 23.1735 81.397 27.4089 68.6467 31.0276C65.3134 31.9731 65.3674 32.3733 65.7217 34.9811C65.8372 35.8314 65.9646 36.8153 65.9784 37.9254C67.9169 37.4635 70.1187 37.2543 72.3004 36.9564C74.719 36.6396 77.0901 36.1953 78.6708 35.3685C79.07 35.1729 79.4092 34.9491 79.6952 34.7253C79.979 34.5022 80.2163 34.2813 80.3793 34.0739C80.7292 33.6719 80.8468 33.3733 80.8628 33.3818C80.8447 33.3743 80.8102 33.6926 80.5648 34.1939C80.455 34.4516 80.2721 34.7431 80.0358 35.0588C79.7989 35.3742 79.4963 35.7117 79.1293 36.0327C77.674 37.3673 75.2991 38.493 72.9753 39.4524C70.6536 40.4135 68.3024 41.2922 66.9611 42.1183C66.6258 42.3178 66.1787 42.7954 66.0343 43.0655C65.9893 43.1624 64.612 45.0711 63.8755 46.0877C61.435 52.0521 61.5107 52.8144 62.897 56.3779C63.7846 58.644 62.6015 60.4942 61.0291 62.2012C60.9822 62.3979 60.9368 62.6067 60.8951 62.838C60.6151 64.3219 60.385 66.4344 60.3646 68.544C60.3329 70.654 60.5318 72.7761 61.0101 74.2757C61.2493 75.0237 61.5652 75.6045 61.8584 75.9648C62.1506 76.3269 62.4002 76.4637 62.3898 76.4755C62.3997 76.4612 62.1217 76.4067 61.7106 76.1298C61.3009 75.855 60.7776 75.3476 60.2902 74.6388C59.3118 73.2219 58.4412 71.0909 57.8104 68.9114C57.4249 67.589 57.1265 66.2619 56.8968 65.0178C55.6062 65.5677 54.227 65.9469 52.8507 66.1952C49.2905 69.3768 52.5457 76.9986 53.679 79.3484C54.3104 80.6573 55.045 81.957 55.8217 83.1761C57.4694 84.4479 59.227 85.5868 60.5479 86.3943C61.3677 86.895 63.7742 87.2204 64.871 87.6801C65.2182 87.8262 65.528 87.9766 65.8231 88.1291L61.1191 85.3345C63.697 85.0052 67.6119 81.8604 70.6142 83.3795C67.1818 83.954 65.5337 86.5558 68.2551 89.5738L67.2538 88.9793C67.8373 89.3656 68.4175 89.7812 69.126 90.2409C70.2064 90.9407 71.2966 91.6257 72.3661 92.2749C74.529 93.5785 76.5917 94.7588 78.3877 95.7027C79.2775 96.1717 80.1065 96.5783 80.8518 96.9047C80.4866 96.4051 80.1314 95.8898 79.8025 95.341C78.7581 93.6113 77.9603 91.5975 77.5923 89.4355C77.2179 87.2738 77.3444 85.0038 77.8218 82.8635C78.0555 81.8151 78.4129 80.6876 78.7709 79.7582C79.1283 78.8438 79.4849 77.9244 79.8455 76.9997C80.5474 75.1908 81.1956 73.43 81.6148 71.711C82.0254 69.9897 82.1724 68.2992 82.0233 66.61C81.9558 65.7644 81.8005 64.9209 81.5892 64.077C81.3615 63.2417 81.158 62.5454 80.7445 61.5498L80.1868 60.1685C79.99 59.6507 79.8014 59.1301 79.6355 58.5916C79.3041 57.5179 79.0466 56.394 78.9173 55.2208C78.8526 54.6279 78.8249 54.0199 78.8406 53.4063C78.7859 53.3457 78.7454 53.2951 78.6871 53.2331C77.9206 52.3985 76.7746 51.3102 75.5218 50.3783C74.28 49.4507 72.8957 48.6368 71.8077 48.5452C71.5431 48.5327 71.3015 48.5623 71.0987 48.6435C70.904 48.7319 70.7446 48.8563 70.6408 48.9899C70.4192 49.2536 70.378 49.4728 70.3623 49.4632C70.3801 49.4678 70.3457 49.254 70.4803 48.8969C70.5449 48.7177 70.671 48.5071 70.8802 48.3118C71.0948 48.1222 71.391 47.9736 71.7271 47.8756C72.402 47.7038 73.2044 47.7227 74.0118 47.8478C74.8267 47.9675 75.6671 48.1888 76.4883 48.4536C77.5796 48.8032 78.6217 49.2365 79.551 49.6716C79.7531 49.1285 79.9922 48.6011 80.2756 48.1044C80.8813 47.0353 81.64 46.1049 82.4456 45.3205C82.8502 44.9306 83.2658 44.5729 83.6814 44.2432C84.0739 43.9271 84.5655 43.5729 84.8621 43.3566C85.3029 43.0441 85.8382 42.4483 86.2787 41.8314C86.7323 41.2067 87.1412 40.5175 87.4886 39.8087C88.1869 38.3876 88.6494 36.8755 88.8654 35.3931C89.081 33.9074 89.0142 32.4481 88.7112 31.087C88.557 30.4123 88.3198 29.7438 88.0555 29.1465L87.8548 28.7127L87.5774 28.2062L87.2793 27.6721C87.1745 27.4612 87.0687 27.2559 86.9824 27.0373C86.6162 26.1764 86.4371 25.2223 86.4595 24.3214C86.4769 23.4177 86.6971 22.5848 86.9813 21.8545C87.5653 20.3901 88.3762 19.2745 89.1247 18.2724C90.6372 16.2882 92.0751 14.7739 92.8338 13.2891C93.2142 12.5574 93.4348 11.8584 93.47 11.2274C93.5087 10.5969 93.3648 10.0505 93.1876 9.63333C93.0096 9.21379 92.8118 8.91348 92.6796 8.71296C92.5347 8.51814 92.4594 8.41693 92.4594 8.41693C92.4594 8.41693 92.5532 8.50057 92.734 8.66261C92.9045 8.83601 93.1744 9.0902 93.4384 9.4993C93.7034 9.90224 93.9769 10.47 94.0639 11.2046C94.163 11.9354 94.0458 12.8002 93.7399 13.6749C93.1407 15.4401 91.9127 17.2855 90.7054 19.3324C90.1196 20.3587 89.5403 21.4668 89.2561 22.6048C88.9755 23.7498 89.0323 24.8284 89.595 25.8062C89.6596 25.9308 89.742 26.051 89.8202 26.1735L90.1278 26.6064L90.4603 27.0797L90.8144 27.6679C91.2662 28.4566 91.6413 29.2624 91.9394 30.1415C92.8778 29.4553 93.919 28.8596 94.9175 28.3549C96.3838 27.6004 97.7681 26.9271 98.6405 25.8804C98.8522 25.6138 99.0607 25.3387 99.2148 25.0246L99.5168 24.4359C99.651 24.2036 99.7782 23.9637 99.9217 23.7631C100.465 22.9264 101.228 22.1785 102.144 21.7381C103.058 21.2852 104.107 21.2401 104.946 21.4853C105.797 21.7224 106.46 22.19 106.965 22.6751C107.976 23.6639 108.432 24.7125 108.719 25.4228C108.992 26.1455 109.089 26.5717 109.089 26.5717C109.089 26.5717 108.91 26.1693 108.511 25.5278C108.109 24.9016 107.462 23.9993 106.438 23.3384C105.934 23.0115 105.33 22.7611 104.713 22.7216C104.095 22.676 103.484 22.8423 102.994 23.2262C102.503 23.6087 102.108 24.1665 101.844 24.8341C101.767 25.0009 101.727 25.1577 101.671 25.3131L101.491 25.926C101.346 26.4263 101.12 26.9091 100.867 27.3757C100.342 28.3036 99.6279 29.0852 98.9122 29.7305C98.1943 30.3724 97.4736 30.9079 96.8349 31.3997C95.5341 32.3737 94.5967 33.2471 94.0834 34.0546C93.5677 34.8539 93.3776 35.582 93.2778 36.1169C93.2029 36.7298 91.3199 41.5189 91.3199 41.5189C90.932 42.4575 90.4834 43.3866 89.904 44.286C89.3144 45.1872 88.6789 46.066 87.6555 46.9248C87.2143 47.2848 86.954 47.4943 86.6254 47.7872C86.3164 48.0623 86.0276 48.341 85.7633 48.6254C85.2305 49.1909 84.7971 49.7835 84.4749 50.4082C83.8263 51.6501 83.6675 53.0652 83.8633 54.635C83.9688 55.4183 84.1705 56.2268 84.4433 57.0404C84.5783 57.447 84.7371 57.8547 84.9026 58.2634L85.168 58.8749L85.4805 59.6425C85.8446 60.4807 86.2592 61.6873 86.5504 62.7792C86.836 63.8725 87.0509 65 87.1532 66.1475C87.3699 68.4456 87.1145 70.7887 86.5828 72.9368C86.0507 75.0906 85.2528 77.0399 84.4916 78.8816C84.1162 79.785 83.7428 80.6844 83.3695 81.5792C83.0044 82.4608 82.744 83.1789 82.5209 84.0082C82.0943 85.616 81.9678 87.22 82.1341 88.7737C82.4808 91.8872 84.1503 94.773 86.2368 97.1809C86.7597 97.785 87.3024 98.368 87.8644 98.9228C88.15 99.1961 88.4331 99.4684 88.714 99.7367C89.0131 100.011 89.3112 100.283 89.607 100.552C90.7636 101.612 91.9259 102.603 93.0661 103.487C95.3441 105.255 97.5901 106.653 99.7313 107.292C101.743 107.913 103.616 107.724 105.04 107.053C105.523 106.799 106.013 106.496 106.521 106.149C107.314 105.552 107.908 104.922 108.321 104.446C108.63 104.097 108.842 103.807 108.99 103.614C109.139 103.421 109.216 103.322 109.216 103.322C109.216 103.322 109.163 103.435 109.056 103.655C108.952 103.874 108.81 104.213 108.566 104.619C108.401 104.913 108.179 105.263 107.921 105.629C106.622 109.766 106.994 108.952 110.972 112.773C112.27 113.455 113.639 114.338 114.975 115.48C116.477 116.749 117.954 118.303 119.318 120.112C119.618 120.518 119.911 120.939 120.201 121.372C121.726 111.927 116.191 95.1497 113.349 93.0575ZM62.405 91.6185C62.405 91.6185 62.404 91.6171 62.4073 91.6185C62.4059 91.6171 62.3969 91.6146 62.3964 91.6135C62.4002 91.6157 62.4026 91.6171 62.405 91.6185ZM62.3448 91.5804L62.3277 91.5637C62.2268 91.4706 62.2946 91.5444 62.3448 91.5804ZM103.74 206.157C103.929 206.135 103.784 206.074 103.824 206.072H103.813L103.569 206.136C103.584 206.149 103.587 206.152 103.607 206.164C103.658 206.189 103.708 206.207 103.757 206.212L103.74 206.157ZM120.049 141.578C120.021 139.188 119.869 136.781 119.667 134.429C119.554 133.27 119.431 132.118 119.283 131.014C118.98 129.928 118.661 128.935 118.33 128.09L117.814 126.775L118.061 126.431C117.501 124.967 116.817 123.566 116.081 122.264C115.092 120.527 113.997 118.954 112.867 117.606C111.741 116.25 110.584 115.11 109.466 114.207C108.337 113.326 107.261 112.659 106.309 112.229C105.991 112.091 105.699 111.977 105.419 111.874C104.834 112.039 104.332 112.312 103.844 112.625C103.795 112.72 103.759 112.815 103.706 112.912C103.352 113.553 102.91 114.198 102.407 114.811C101.904 115.433 101.346 116.031 100.745 116.611C100.145 117.186 99.5097 117.748 98.8497 118.272C98.1982 118.81 97.5084 119.304 96.8406 119.798C96.1522 120.27 95.4915 120.749 94.8187 121.179C94.1715 121.629 93.5101 122.036 92.9141 122.439C92.2988 122.839 91.7579 123.22 91.2407 123.582C90.7721 123.946 90.2958 124.296 89.9885 124.625C89.6561 124.954 89.3975 125.269 89.2589 125.612C89.2202 125.705 89.1829 125.792 89.1463 125.877C89.1346 125.966 89.119 126.055 89.0994 126.149C89.0455 126.336 89.0455 126.521 89.0668 126.69C89.0728 127.039 89.1438 127.34 89.1971 127.544C89.244 127.76 89.2682 127.876 89.2682 127.876C89.2682 127.876 89.1616 127.833 88.9659 127.731C88.7766 127.62 88.4498 127.488 88.1542 127.159C87.9827 127.007 87.8097 126.821 87.6658 126.57C87.5845 126.449 87.5024 126.315 87.4275 126.172C87.3774 126.016 87.323 125.858 87.269 125.692C87.1344 125.344 87.1444 124.978 87.1131 124.562C87.1333 124.183 87.1767 123.735 87.2875 123.344C87.4871 122.505 87.8779 121.768 88.3247 121.012C88.7897 120.308 89.3236 119.597 89.9154 118.975C90.5086 118.331 91.1387 117.735 91.8072 117.172C92.4658 116.607 93.1659 116.09 93.8533 115.585C94.5583 115.098 95.2507 114.622 95.949 114.194C96.5873 113.787 97.2182 113.413 97.833 113.058C98.298 111.495 97.5592 109.891 96.4481 108.493C94.7498 107.887 93.0448 107.009 91.3618 105.969C90.0354 105.155 88.7275 104.234 87.393 103.241C86.6112 102.663 85.78 102.001 84.9573 101.29C81.2762 101.453 76.4983 103.282 74.2217 104.831C74.0899 103.5 76.3544 100.232 78.5173 98.699C78.1674 98.6523 77.8094 98.5992 77.4442 98.5322C75.2703 98.1417 72.8236 97.4136 70.314 96.3588C69.0578 95.8321 67.7843 95.2252 66.5174 94.5129C65.2372 93.7912 64.0044 93.0254 62.6896 91.8997L62.3656 91.5989C62.3211 91.5786 62.2392 91.5465 62.1094 91.5205C61.7637 91.4507 61.2365 91.3994 60.6852 91.414C59.5647 91.4507 58.3252 91.6093 57.127 91.8209C54.7153 92.25 52.3993 92.822 50.4187 93.3351C48.4385 93.8586 46.7761 94.3397 45.6598 94.7645C45.1161 94.9911 44.6751 95.1807 44.4662 95.3849C44.2285 95.5759 44.354 95.7754 44.354 95.7754C44.3578 95.7715 44.309 95.7601 44.2475 95.6839C44.1797 95.6105 44.1466 95.4273 44.2077 95.2405C44.3228 94.8674 44.6188 94.4088 45.0649 93.9252C45.5594 93.369 46.2253 92.7521 47.0451 92.1117C48.761 90.7668 52.5959 89.1347 53.0704 87.003C53.5441 84.8705 50.8245 81.2884 49.8882 79.316C49.8569 79.249 49.8266 79.1838 49.8001 79.1203C48.5043 76.0564 47.8332 73.2736 47.7763 70.8571C39.6126 81.1131 40.8379 102.609 43.2349 111.997C43.4134 112.384 43.6502 112.898 43.9348 113.512C44.543 114.871 45.3131 116.697 45.9747 118.568C46.6359 120.439 47.1886 122.367 47.3463 123.87C47.432 124.62 47.4083 125.259 47.3184 125.688C47.2303 126.118 47.0882 126.324 47.1014 126.328C47.1014 126.328 47.1067 126.267 47.1147 126.153C47.1303 126.044 47.1204 125.879 47.0972 125.678C47.0441 125.272 46.8727 124.714 46.571 124.087C46.0439 122.967 45.1236 121.63 44.1044 120.318C43.5991 121.446 42.8721 122.447 42.2095 123.354C40.6181 125.53 38.9751 127.779 39.175 132.055C39.1769 132.12 39.2403 133.182 39.4307 134.906C39.4961 135.498 41.0723 136.526 41.7269 136.423C45.6214 135.797 48.5417 137.042 52.1872 139.214C53.5872 140.046 57.5731 144.233 58.3584 145.482C58.7543 146.099 59.9464 147.832 60.2865 148.422C60.4342 148.668 62.9354 151.26 66.1749 151.775C68.7107 152.179 62.1871 152.283 62.5238 153.53C62.8312 154.757 64.1384 156.942 65.8145 159.204C68.687 161.109 71.9786 162.156 75.4611 158.476C74.7805 164.045 70.3954 165.964 68.9243 168.91C68.947 168.977 68.9641 169.041 68.9868 169.109C69.7102 171.198 71.038 173.501 72.8222 175.559C73.7074 176.593 74.7251 177.546 75.8149 178.348C76.9128 179.133 78.0804 179.777 79.259 180.097C79.5538 180.188 79.8344 180.247 80.1421 180.302C80.569 180.379 80.8368 180.412 81.2279 180.465C81.9536 180.558 82.6925 180.648 83.4406 180.704C84.9339 180.831 86.4467 180.904 87.9312 180.99C90.9043 181.147 93.7758 181.322 96.2772 181.753C97.5279 181.967 98.6859 182.245 99.7029 182.613C100.718 182.982 101.593 183.456 102.2 184.031C102.822 184.586 103.088 185.226 103.152 185.63C103.193 185.835 103.193 185.992 103.188 186.098C103.183 186.199 103.181 186.253 103.181 186.253C103.181 186.253 103.086 186.054 102.853 185.767C102.625 185.477 102.198 185.178 101.609 184.99C100.403 184.636 98.4959 184.727 96.1557 184.98C93.812 185.224 91.0265 185.607 87.9411 185.784C86.3973 185.876 84.7786 185.904 83.0978 185.82C82.257 185.769 81.3999 185.704 80.5321 185.583C80.4578 185.572 80.3729 185.561 80.292 185.548C80.1442 185.966 80.0476 186.457 79.9776 187.004C80.0316 187.146 80.0888 187.274 80.1477 187.42C80.3158 187.864 80.4749 188.324 80.6351 188.798C80.785 189.273 80.9423 189.756 81.0798 190.246C81.2063 190.74 81.3615 191.222 81.4642 191.721C81.6045 192.197 81.6929 192.701 81.8116 193.167C81.927 193.635 81.9966 194.123 82.1064 194.559C82.1469 194.786 82.2055 195.004 82.2321 195.235C82.279 195.446 82.3358 195.648 82.3717 195.862C82.4389 196.303 82.5451 196.674 82.6278 197.059C82.6932 197.468 82.8125 197.784 82.9017 198.121C82.9433 198.291 82.9958 198.443 83.0296 198.609C83.0853 198.752 83.1372 198.884 83.1841 199.003C83.2828 199.224 83.3493 199.435 83.4072 199.581L83.5088 199.598C83.4995 199.657 83.4846 199.708 83.4732 199.763C83.4953 199.823 83.5088 199.862 83.5088 199.862C83.5088 199.862 83.486 199.865 83.4516 199.867C83.1663 201.202 82.5646 201.991 81.9313 202.555C84.3169 206.922 90.618 213.819 102.995 214.826L103.659 214.878C103.716 214.589 103.769 214.286 103.817 213.968C104.007 212.666 104.142 211.123 104.114 209.522C104.103 208.729 104.045 207.91 103.903 207.18C103.83 206.821 103.728 206.479 103.621 206.256C103.599 206.207 103.578 206.17 103.556 206.14L103.092 206.261C102.613 206.341 102.12 206.41 101.621 206.433C100.634 206.479 99.6382 206.417 98.7367 206.254C97.8149 206.111 96.994 205.862 96.2133 205.627C95.451 205.357 94.7271 205.109 94.092 204.816C92.8054 204.25 91.7849 203.683 91.0798 203.244C90.3711 202.817 89.9832 202.514 89.9832 202.514C89.9832 202.514 90.4731 202.45 91.2989 202.445C92.1283 202.436 93.3009 202.463 94.6596 202.569C95.3402 202.639 96.0648 202.68 96.825 202.773C97.2043 202.828 97.5833 202.834 97.9727 202.881C98.3605 202.932 98.7559 202.96 99.1431 202.978C99.5303 203.008 99.9277 203.042 100.315 203.036C100.706 203.047 101.1 203.059 101.5 203.029C101.897 203.026 102.302 203.005 102.724 202.96L103.353 202.918L103.491 202.905L103.534 202.901L103.618 202.896C103.721 202.89 103.934 202.892 104.086 202.908C104.363 202.941 104.638 203.011 104.901 203.126C105.426 203.36 105.812 203.741 106.062 204.088C106.315 204.44 106.463 204.775 106.578 205.086C106.799 205.71 106.875 206.263 106.916 206.794C106.999 207.85 106.906 208.805 106.777 209.716C106.494 211.529 105.981 213.133 105.383 214.448C105.18 214.892 104.962 215.288 104.744 215.66L104.98 216.043C106.452 218.431 109.632 217.313 110.932 216.719C113.301 215.642 115.705 212.11 115.497 207.686L115.432 206.309L116.537 205.487C116.666 205.382 120.175 202.388 117.704 194.821C116.506 194.914 115.311 194.851 114.313 196.76C114.058 199.11 113.349 202.128 111.827 204.664C112.456 201.693 111.803 199.377 110.945 197.754C110.93 197.754 110.916 197.756 110.901 197.756C109.905 197.805 108.971 197.737 108.086 197.635C106.319 197.425 104.745 197.021 103.326 196.592C100.497 195.709 98.297 194.673 96.7937 193.865C95.2883 193.076 94.4774 192.521 94.4774 192.521C94.4774 192.521 95.4574 192.601 97.1219 192.793C97.9503 192.88 98.9562 192.985 100.11 193.106C101.255 193.226 102.538 193.342 103.917 193.437C105.294 193.522 106.776 193.587 108.266 193.519C109.736 193.452 111.296 193.24 112.345 192.726C113.748 192.052 115.278 191.209 116.31 190.275C116.829 189.82 117.212 189.335 117.354 188.976C117.495 188.618 117.525 188.423 117.417 188.006C117.305 187.606 116.993 187.035 116.534 186.479C116.282 186.165 115.587 185.616 114.913 185.162C113.506 184.232 111.93 183.343 110.402 182.508C108.852 181.662 107.352 180.841 105.929 180.063C104.499 179.274 103.145 178.512 101.906 177.771C99.4258 176.303 97.4047 174.921 96.1128 173.761C95.4634 173.188 95.0102 172.643 94.7928 172.21C94.5616 171.765 94.6848 171.489 94.6738 171.503C94.6738 171.503 94.6823 171.771 95.0088 172.053C95.3118 172.348 95.8787 172.646 96.6204 172.979C98.1115 173.641 100.358 174.361 103.049 175.264C105.745 176.169 108.899 177.215 112.261 178.576C113.939 179.28 115.671 180.014 117.451 181.038C117.734 181.206 118.019 181.374 118.307 181.555C120.042 178.405 119.5 174.464 118.872 169.965C118.42 166.718 117.93 163.166 118.35 159.593C118.141 159.633 117.932 159.662 117.725 159.676C117.272 159.709 116.836 159.682 116.431 159.616L116.13 159.561L116.057 159.548L115.96 159.527L115.936 159.52L115.836 159.492L115.44 159.382C115.185 159.313 114.801 159.183 114.497 159.077C114.197 158.959 113.916 158.84 113.636 158.717C111.415 157.688 109.752 156.314 108.318 155.075C106.885 153.829 105.694 152.653 104.56 151.766C103.428 150.885 102.381 150.271 101.415 150.04C100.455 149.827 99.618 149.92 99.0727 150.083C98.7925 150.147 98.5882 150.235 98.4454 150.284C98.3026 150.335 98.2284 150.363 98.2284 150.363C98.2284 150.363 98.2906 150.312 98.4078 150.217C98.5282 150.126 98.6955 149.963 98.9573 149.815C99.4542 149.501 100.3 149.063 101.509 149.032C102.706 149.004 104.158 149.385 105.58 150.103C107.016 150.802 108.501 151.734 110.057 152.687C111.615 153.631 113.281 154.586 115.024 155.127C115.242 155.185 115.457 155.243 115.676 155.301C116.933 155.508 117.637 155.728 118.361 154.469C118.74 153.804 119.066 152.864 119.301 151.856C119.535 150.842 119.691 149.741 119.815 148.615C120.034 146.352 120.101 143.968 120.049 141.578ZM80.7321 199.181C80.5719 199.092 80.4109 199.006 80.2618 198.891C79.844 198.595 79.3851 198.243 79.0146 197.815C78.8125 197.608 78.6249 197.379 78.4218 197.144C78.2424 196.91 78.0893 196.654 77.917 196.398C77.5632 195.88 77.3078 195.323 77.051 194.745C76.7988 194.167 76.634 193.567 76.4592 192.961C76.3349 192.357 76.2028 191.745 76.1555 191.143C76.1061 190.537 76.0742 189.943 76.1125 189.368C76.1413 188.374 76.3186 187.443 76.5491 186.628C76.3882 185.789 76.2706 184.993 76.1871 184.354C74.919 183.753 73.7798 182.99 72.7956 182.126C71.401 180.931 70.2789 179.558 69.351 178.158C68.1371 176.288 67.295 174.334 66.7963 172.448C66.3895 172.747 65.9154 172.998 65.4157 173.168C64.7688 173.403 64.0816 173.487 63.4318 173.473C63.0472 173.466 62.6839 173.402 62.3372 173.319L62.1909 173.529C62.1132 173.665 59.4041 178.609 66.9933 187.86C73.6061 195.922 77.3657 198.435 78.6558 198.826C78.626 198.828 78.5955 198.833 78.5678 198.855L80.7321 199.181ZM61.8319 168.92C64.3022 168.748 64.5575 168.486 65.0364 166.154C65.2736 164.996 65.2542 162.861 64.5253 161.893C64.5087 161.874 64.4964 161.857 64.4822 161.839C63.6742 160.798 62.6375 159.229 61.5856 157.283C61.1626 156.51 60.7331 155.671 60.2983 154.808L60.2855 154.832C60.2855 154.832 60.133 154.717 59.8678 154.514C59.8124 154.479 59.8342 154.429 59.6873 154.34C59.5197 154.254 59.3506 154.134 59.1086 154.041C58.5748 153.797 57.8526 153.555 57.0535 153.37C54.5533 152.776 52.0673 153.487 49.587 154.837C49.587 154.837 49.668 154.644 49.8124 154.308C49.8754 154.128 49.9872 153.932 50.1411 153.721C50.2837 153.497 50.4523 153.243 50.6872 153.014C50.8042 152.891 50.924 152.764 51.0476 152.633C51.1864 152.519 51.3285 152.402 51.4781 152.281C51.7704 152.02 52.1161 151.824 52.4756 151.591C53.2026 151.175 54.0338 150.794 54.8929 150.527C55.2855 150.398 55.6834 150.289 56.0774 150.195C55.9808 149.471 55.8544 148.526 55.5626 147.368C54.8564 146.422 54.156 145.476 53.4167 144.594C52.5713 143.562 51.6913 142.593 50.7999 141.767C49.911 140.933 48.9916 140.285 48.1334 139.877C47.9189 139.784 47.7053 139.703 47.4969 139.639C47.3923 139.594 47.2909 139.586 47.1872 139.552L47.0441 139.514L46.8002 139.483C46.4474 139.438 46.2451 139.414 45.942 139.388C45.656 139.357 45.3685 139.336 45.0829 139.316C43.9358 139.254 42.8025 139.259 41.7141 139.261C41.1348 139.264 40.5679 139.259 40.0171 139.237C40.1942 139.244 41.8135 147.6 42.0191 148.356C43.6407 154.319 46.005 160.842 50.5825 165.194C52.5902 167.101 55.0274 168.393 57.7697 168.813C59.1147 169.019 60.4792 169.014 61.8319 168.92ZM50.2259 62.2062C53.4744 61.971 56.3351 60.9222 57.7829 59.3738C58.5862 58.515 59.3411 57.3191 58.9035 55.2989L58.9097 55.3007C57.8805 51.5211 58.8149 49.259 61.641 42.4946C62.8724 39.5489 62.5759 37.3687 62.3154 35.4458C62.1577 34.2791 62.0507 33.0846 62.2141 31.9874C60.0331 33.3148 58.8443 36.5317 57.593 39.9359C56.4222 43.1161 55.2131 46.4053 52.9833 49.1168C50.0942 52.6294 49.5392 57.8233 50.2259 62.2062ZM63.8765 29.0396C64.7238 28.3944 65.9476 27.9202 67.7094 27.7092C80.569 26.1688 77.0723 19.7753 76.4102 14.7254C75.5669 15.3294 74.7371 15.8743 73.9432 16.3143C68.1419 19.531 63.8045 25.0522 63.8765 29.0396ZM78.6558 198.826C78.7844 198.865 78.8945 198.887 78.9745 198.887C78.8811 198.884 78.7631 198.814 78.6558 198.826ZM78.9873 198.889C78.9834 198.889 78.9777 198.887 78.9745 198.887C78.977 198.887 78.9805 198.889 78.983 198.889H78.9873ZM68.5226 72.1443C68.0675 76.0927 71.97 81.828 71.97 81.828C71.97 81.828 71.3918 73.9025 72.3885 72.0538C73.7628 69.5072 73.4406 61.538 66.9081 61.4022C70.2359 62.6174 68.9451 68.4788 68.5226 72.1443ZM73.3067 140.936L73.3355 141.033L73.3774 141.102C73.4332 141.088 73.3682 141.005 73.3067 140.936ZM110.857 138.772C110.27 137.827 109.505 136.719 108.504 135.5C107.505 134.279 106.262 132.949 104.497 131.782C103.611 131.203 102.576 130.68 101.343 130.369C100.731 130.212 100.067 130.117 99.3779 130.124C99.0202 130.116 98.7186 130.148 98.3019 130.191C98.0337 130.231 97.8021 130.257 97.4679 130.325C95.0745 130.784 92.7212 131.668 90.4762 133.163C89.6241 133.74 88.7986 134.41 88.0335 135.179C87.1177 134.711 86.0357 134.225 85.0376 133.801C84.0782 133.112 83.0427 132.271 81.9387 131.323C81.5945 131.027 81.2336 130.7 80.8788 130.382C78.0637 126.535 76.9885 120.078 78.6992 115.692C76.7753 117.059 75.9115 122.059 74.9531 125.048C74.7091 124.845 74.4686 124.64 74.2157 124.437C73.4545 123.806 72.6322 123.205 71.7931 122.627C70.9769 122.046 70.0277 121.449 69.18 120.947C68.7434 120.691 68.3029 120.434 67.8634 120.174C67.6526 120.035 67.4565 119.887 67.2695 119.701C66.9052 119.318 66.569 118.754 66.3085 118.03C65.7506 116.591 65.5019 114.711 65.2779 112.812C65.0624 110.895 64.9033 108.909 64.4794 106.84C64.361 106.306 64.2478 105.828 64.0517 105.205C63.9167 104.816 63.6567 104.032 63.2295 103.439C62.816 102.835 62.297 102.321 61.7532 101.943C61.2086 101.577 60.6512 101.3 60.1174 101.125C57.9747 100.432 56.1953 100.556 54.6007 100.66C53.0093 100.795 51.6155 101.068 50.3898 101.312C49.1636 101.546 48.1126 101.815 47.2454 102.016C45.5068 102.433 44.5136 102.672 44.5136 102.672C44.5136 102.672 45.5276 102.88 47.3174 103.04C48.2092 103.119 49.2938 103.217 50.5195 103.284C51.7457 103.372 53.123 103.475 54.5557 103.652C55.9647 103.834 57.5319 104.116 58.6274 104.715C59.1678 105.02 59.4884 105.352 59.6111 105.681C59.6845 105.855 59.6873 105.97 59.8138 106.471C59.8645 106.746 59.9317 107.192 59.9739 107.59C60.1211 108.988 60.1557 110.573 60.2438 112.246C57.5973 112.985 52.9435 116.525 52.5144 120.309C53.1822 119.78 57.4097 116.928 60.8813 117.756C61.0371 118.444 61.2285 119.145 61.4866 119.862C61.9304 121.03 62.602 122.267 63.6505 123.322C64.1791 123.846 64.7948 124.299 65.4555 124.65C65.8889 124.877 66.3199 125.106 66.7513 125.332C67.206 125.566 67.5887 125.793 67.9913 126.019C68.3953 126.236 68.7964 126.458 69.1957 126.699C69.9972 127.165 70.7634 127.653 71.526 128.142C72.3089 128.665 73.0779 129.181 73.8314 129.684C74.3013 129.991 74.4878 130.098 74.8881 130.384C75.2558 130.639 75.617 130.892 75.9768 131.141C77.436 132.142 78.875 133.043 80.2529 133.793C81.1253 134.272 81.9753 134.678 82.7905 135.029C82.9969 135.89 83.1599 136.88 83.172 137.848C83.1663 137.86 83.1635 137.872 83.1575 137.886C82.8605 138.527 82.3664 139.055 81.6617 139.509C80.2348 140.417 77.9941 140.919 75.5513 141.17C74.9389 141.225 74.3123 141.208 73.6864 141.221L73.452 141.228L73.3774 141.102C73.3731 141.103 73.3724 141.107 73.366 141.107L72.841 141.258C72.679 141.242 72.4553 141.308 72.3437 141.279L71.9811 141.244L71.6184 141.206L71.1637 141.11C70.8596 141.037 70.5588 141.003 70.249 140.914C69.6306 140.755 69.01 140.597 68.3976 140.373C67.1525 140.006 65.9675 139.465 64.7977 138.95C64.2459 138.638 63.669 138.367 63.1267 138.064C62.6133 137.725 62.0597 137.432 61.5723 137.084C61.0997 136.722 60.5848 136.402 60.1534 136.025C59.7295 135.642 59.2639 135.292 58.8807 134.899C58.4971 134.496 58.1216 134.105 57.7588 133.726C57.4381 133.305 57.127 132.899 56.8281 132.51C56.4942 132.128 56.3218 131.685 56.0594 131.298C55.8217 130.902 55.5602 130.529 55.4144 130.14C55.2396 129.757 55.0866 129.393 54.9171 129.054C54.8351 128.883 54.757 128.718 54.6822 128.562C54.6163 128.402 54.5785 128.244 54.5287 128.094C54.3525 127.497 54.1636 127.017 54.0551 126.684C53.9338 126.348 53.868 126.169 53.868 126.169C53.868 126.169 53.8306 126.352 53.7591 126.696C53.7027 127.039 53.591 127.552 53.5114 128.22C53.4896 128.386 53.4583 128.566 53.4479 128.75C53.4479 128.935 53.4493 129.129 53.4503 129.331C53.4479 129.738 53.474 130.18 53.491 130.661C53.4825 131.151 53.6198 131.636 53.7198 132.17C53.7794 132.437 53.8401 132.71 53.9007 132.99C53.9618 133.271 54.0295 133.559 54.1474 133.833C54.3587 134.395 54.5997 134.978 54.8479 135.591C55.1515 136.165 55.5053 136.74 55.861 137.346C56.2257 137.947 56.7097 138.469 57.1554 139.058C57.6058 139.646 58.1793 140.114 58.7107 140.663C59.253 141.2 59.8872 141.626 60.4953 142.115C61.12 142.575 61.7902 142.974 62.4618 143.389C63.8386 144.143 65.2916 144.809 66.8119 145.296C67.5655 145.55 68.3484 145.738 69.1298 145.918C69.5139 146.022 69.9308 146.063 70.3286 146.127L70.9314 146.214L71.6326 146.266L72.3306 146.307C72.5718 146.321 72.7025 146.303 72.8932 146.297L73.4189 146.266L73.5834 146.259L73.6012 146.256L73.6367 146.25L73.7106 146.242L73.8537 146.224L74.1422 146.185C74.9052 146.075 75.6472 145.937 76.3669 145.749C77.6733 145.426 78.9187 144.98 80.0781 144.413C86.4364 143.417 87.1 156.874 86.5504 160.804C85.6308 161.92 84.4579 163.214 83.3649 164.613C82.5564 165.644 81.7977 166.771 81.2567 167.932C81.001 168.523 80.7821 169.107 80.6678 169.694C80.5442 170.275 80.5072 170.84 80.5474 171.35C80.5868 171.859 80.6891 172.312 80.8269 172.689C80.9495 173.072 81.1171 173.376 81.2478 173.624C81.3796 173.869 81.5203 174.042 81.5963 174.167C81.6801 174.29 81.7235 174.354 81.7235 174.354C81.7235 174.354 81.6979 174.28 81.6485 174.14C81.6048 173.999 81.5149 173.804 81.4524 173.539C81.3903 173.274 81.3107 172.958 81.2929 172.588C81.2567 172.224 81.2734 171.812 81.353 171.386C81.4293 170.957 81.58 170.514 81.8005 170.075C82.0137 169.636 82.3188 169.208 82.6488 168.786C83.3468 167.952 84.2277 167.169 85.1893 166.441C87.0822 164.988 89.1932 163.741 90.8126 162.324C91.0052 162.483 91.1948 162.648 91.3998 162.788C92.6274 163.645 93.8859 164.168 95.0354 164.545C96.1962 164.926 97.2853 165.198 98.3332 165.462C98.8479 165.58 99.3551 165.697 99.8542 165.812C100.307 165.918 100.786 166.043 101.246 166.174C102.173 166.431 103.081 166.706 103.942 166.99C105.674 167.551 107.258 168.107 108.642 168.639C110.018 169.191 111.207 169.702 112.134 170.201C113.045 170.708 113.742 171.186 113.974 171.649C114.217 172.126 113.878 172.436 113.911 172.42C113.906 172.416 113.982 172.384 114.088 172.266C114.197 172.157 114.329 171.899 114.27 171.563C114.158 170.891 113.582 170.123 112.77 169.341C111.957 168.545 110.89 167.688 109.603 166.824C108.324 165.941 106.834 165.029 105.148 164.135C104.303 163.693 103.416 163.243 102.465 162.815C101.984 162.601 101.5 162.394 100.969 162.19C100.477 162.009 99.9792 161.827 99.4745 161.643C97.518 160.932 95.4222 160.185 94.1495 159.122C93.5154 158.589 93.0277 157.94 92.5635 157.081C92.1056 156.228 91.7223 155.196 91.344 154.123C90.9689 153.043 90.6286 151.898 90.2983 150.737L89.7914 148.976C89.649 148.429 89.5083 147.923 89.4202 147.398C89.0284 145.317 89.0906 143.298 89.7648 141.541C90.418 139.777 91.6715 138.257 93.2288 137.062C94.7839 135.88 96.641 134.992 98.3836 134.486C98.5648 134.423 98.8546 134.357 99.1022 134.293C99.202 134.272 99.4166 134.209 99.575 134.198C99.9182 134.143 100.275 134.136 100.645 134.164C101.385 134.212 102.153 134.452 102.901 134.748C104.401 135.367 105.755 136.297 106.942 137.144C108.125 138.012 109.118 138.867 109.961 139.555C111.61 140.976 112.611 141.765 112.611 141.765C112.611 141.765 112.458 141.488 112.172 140.97C111.878 140.457 111.455 139.7 110.857 138.772ZM73.2779 140.839L73.3067 140.936C73.2609 140.882 73.219 140.839 73.2332 140.839H73.2488H73.2779Z" fill="#6EE5B7"/>
<path d="M144.293 88.8313H110.903V136.94H144.293V88.8313Z" stroke="#6EE5B7" stroke-width="11"/>
<path d="M160.219 190.571C160.219 185.323 164.46 181.068 169.691 181.068C174.923 181.068 179.164 185.323 179.164 190.571C179.164 195.82 174.923 200.074 169.691 200.074C164.46 200.074 160.219 195.82 160.219 190.571ZM114.633 188.79H169.691V192.353H114.633V188.79Z" fill="#6EE5B7"/>
<path d="M186.149 61.9263C186.149 67.1748 190.39 71.4293 195.622 71.4293C200.853 71.4293 205.094 67.1748 205.094 61.9263C205.094 56.6779 200.853 52.4233 195.622 52.4233C190.39 52.4233 186.149 56.6779 186.149 61.9263ZM112.502 63.7081H195.622V60.1445H112.502V63.7081Z" fill="#6EE5B7"/>
<path d="M190.057 156.005C190.057 150.756 194.297 146.502 199.529 146.502C204.761 146.502 209.001 150.756 209.001 156.005C209.001 161.253 204.761 165.508 199.529 165.508C194.297 165.508 190.057 161.253 190.057 156.005ZM116.409 154.223H199.529V157.786H116.409V154.223Z" fill="#6EE5B7"/>
<path d="M198.937 109.322C198.937 114.57 203.178 118.825 208.409 118.825C213.641 118.825 217.882 114.57 217.882 109.322C217.882 104.073 213.641 99.8188 208.409 99.8188C203.178 99.8188 198.937 104.073 198.937 109.322ZM146.602 111.104H208.409V107.54H146.602V111.104Z" fill="#6EE5B7"/>
<path d="M173.48 95.7802C173.48 99.9788 176.873 103.382 181.058 103.382C185.243 103.382 188.636 99.9788 188.636 95.7802C188.636 91.5816 185.243 88.178 181.058 88.178C176.873 88.178 173.48 91.5816 173.48 95.7802ZM146.602 97.2056H181.058V94.3547H146.602V97.2056Z" fill="#6EE5B7"/>
<path d="M173.48 122.863C173.48 118.665 176.873 115.261 181.058 115.261C185.243 115.261 188.636 118.665 188.636 122.863C188.636 127.062 185.243 130.466 181.058 130.466C176.873 130.466 173.48 127.062 173.48 122.863ZM146.602 121.438H181.058V124.289H146.602V121.438Z" fill="#6EE5B7"/>
<path d="M0.833333 269.5C0.833333 270.973 2.02724 272.167 3.5 272.167C4.97276 272.167 6.16667 270.973 6.16667 269.5C6.16667 268.027 4.97276 266.833 3.5 266.833C2.02724 266.833 0.833333 268.027 0.833333 269.5ZM3.5 97.5V97H3V97.5H3.5ZM29.8333 97.5C29.8333 98.9728 31.0272 100.167 32.5 100.167C33.9728 100.167 35.1667 98.9728 35.1667 97.5C35.1667 96.0272 33.9728 94.8333 32.5 94.8333C31.0272 94.8333 29.8333 96.0272 29.8333 97.5ZM4 269.5V97.5H3V269.5H4ZM3.5 98H32.5V97H3.5V98Z" fill="#6EE5B7"/>
<path d="M252.667 277C252.667 278.473 251.473 279.667 250 279.667C248.527 279.667 247.333 278.473 247.333 277C247.333 275.527 248.527 274.333 250 274.333C251.473 274.333 252.667 275.527 252.667 277ZM250 105V104.5H250.5V105H250ZM223.667 105C223.667 106.473 222.473 107.667 221 107.667C219.527 107.667 218.333 106.473 218.333 105C218.333 103.527 219.527 102.333 221 102.333C222.473 102.333 223.667 103.527 223.667 105ZM249.5 277V105H250.5V277H249.5ZM250 105.5H221V104.5H250V105.5Z" fill="#6EE5B7"/>
<path d="M121.833 274.5C121.833 275.973 123.027 277.167 124.5 277.167C125.973 277.167 127.167 275.973 127.167 274.5C127.167 273.027 125.973 271.833 124.5 271.833C123.027 271.833 121.833 273.027 121.833 274.5ZM121.833 205C121.833 206.473 123.027 207.667 124.5 207.667C125.973 207.667 127.167 206.473 127.167 205C127.167 203.527 125.973 202.333 124.5 202.333C123.027 202.333 121.833 203.527 121.833 205ZM125 274.5V205H124V274.5H125Z" fill="#6EE5B7"/>
</svg>
