<svg width="71" height="72" viewBox="0 0 71 72" fill="none" xmlns="http://www.w3.org/2000/svg">
<g clip-path="url(#clip0_214_8)">
<mask id="mask0_214_8" style="mask-type:alpha" maskUnits="userSpaceOnUse" x="0" y="0" width="71" height="72">
<path d="M35.5 72C55.1061 72 71 55.8823 71 36C71 16.1177 55.1061 0 35.5 0C15.8939 0 0 16.1177 0 36C0 55.8823 15.8939 72 35.5 72Z" fill="#D9D9D9"/>
</mask>
<g mask="url(#mask0_214_8)">
<path d="M35.6237 73.726C56.5278 73.726 73.4739 56.8355 73.4739 36C73.4739 15.1645 56.5278 -1.72603 35.6237 -1.72603C14.7197 -1.72603 -2.22644 15.1645 -2.22644 36C-2.22644 56.8355 14.7197 73.726 35.6237 73.726Z" fill="#6EE7B7"/>
<path d="M62.7868 64.011C62.3168 60.3616 60.2387 54.2219 58.977 52.5699C57.5917 50.7699 57.0227 50.2027 52.3965 48.6493C52.1492 47.4164 51.2338 44.3096 50.1453 43.0027C48.4878 40.5123 43.9607 39.9452 42.6 40.2411C42.6 40.2411 35.2774 37.6767 26.8415 37.6767C24.1696 38.2685 21.0773 39.4767 19.3951 42.0164C18.2571 43.6931 19.5435 44.2356 18.9745 45.7644C18.8261 46.1589 15.3627 48.1315 13.9525 49.3151C13.3093 49.8329 12.5919 51.1397 12.0971 52.8411C11.1076 56.3178 12.1714 61.126 10.9344 65.3178C8.55952 73.4055 3.73547 75.8219 3.73547 75.8219H67.6603C67.6108 75.7973 63.8011 71.7041 62.7868 64.011Z" fill="white"/>
<path d="M62.4157 64.0603C61.9209 60.8301 60.9314 57.6247 59.6697 54.6164C59.0512 53.1616 58.1111 51.7562 56.8 50.8931C56.1321 50.474 55.3899 50.1534 54.623 49.8329C53.8561 49.537 53.0645 49.2658 52.2976 48.9945C52.1739 48.9452 52.0749 48.8466 52.0502 48.7233C51.9512 48.2301 51.8275 47.7616 51.6791 47.2685C51.0359 45.2712 50.3432 43.0521 48.4631 41.8931C47.0282 41.0301 45.3213 40.611 43.6638 40.537C43.3422 40.537 42.9958 40.537 42.699 40.5863H42.6C42.5753 40.5863 42.5258 40.5863 42.501 40.5616C41.3136 39.9945 40.0024 39.6493 38.716 39.3041C34.8568 38.4164 30.8244 38.0466 26.8662 38.0219C24.4418 38.589 21.0526 39.9205 19.5683 42.3863C19.3209 42.7808 19.1972 43.1753 19.2467 43.6192C19.2962 44.1123 19.4693 44.6548 19.3456 45.1726C19.2962 45.3945 19.2467 45.6411 19.1477 45.8384C18.9498 46.1096 18.6282 46.2822 18.3808 46.4548C17.0944 47.2931 15.7833 48.0329 14.5463 48.8959C14.1258 49.1918 13.73 49.463 13.4331 49.8822C12.5672 51.1151 12.0477 52.5945 11.8251 54.074C11.4293 57.0822 11.8251 60.1397 11.4293 63.1479C10.984 66.1562 9.82125 69.0658 8.1885 71.6301C7.05052 73.3562 5.66516 74.9589 3.90871 76.0685L3.73554 75.3781H67.6603L67.3882 75.9945C66.646 75.1562 66.0523 74.2438 65.508 73.2822C63.8258 70.4712 62.8362 67.2904 62.4157 64.0603ZM63.1578 63.9616C63.43 66.0575 63.9495 68.1288 64.7411 70.1014C65.5328 72.0493 66.5223 73.9479 67.9077 75.5507C68.1056 75.7726 67.9324 76.1918 67.6355 76.1671H3.7108C3.51289 76.1671 3.33972 75.9945 3.33972 75.7973C3.33972 75.6493 3.41394 75.526 3.53763 75.4767C3.93345 75.2548 4.32927 74.9342 4.70035 74.6137C7.94112 71.7041 9.96969 67.389 10.6376 63.0986C11.2066 59.0795 10.1429 54.7397 11.9488 50.9178C12.3693 50.0301 12.8889 49.0932 13.73 48.526C15.2638 47.3918 16.946 46.5534 18.4551 45.4438C18.4798 45.4438 18.4798 45.4192 18.4798 45.4192C18.4551 45.4438 18.4303 45.4932 18.4303 45.5178C18.5787 45.1726 18.6282 44.8767 18.5787 44.4822C18.5045 43.989 18.3808 43.3233 18.554 42.8055C18.6282 42.5096 18.7767 42.2384 18.9251 42.0164C20.7063 39.3534 23.8481 38.1699 26.8415 37.5041C27.6826 37.5288 28.5484 37.3808 29.3895 37.3808C30.5523 37.3808 31.7397 37.5534 32.9024 37.7014C36.2422 38.2192 39.4582 39.1068 42.7484 39.8219L42.5258 39.7973C43.2927 39.6493 44.0101 39.7233 44.7523 39.8219C49.5021 40.537 51.1101 42.6082 52.3965 47.0219C52.5449 47.5151 52.6686 48.0082 52.7923 48.526L52.5449 48.2301C54.9199 49.0685 57.5916 49.8329 59.1007 52.0274C59.6449 52.6931 60.0408 53.4822 60.3871 54.2712C61.6488 57.4274 62.6383 60.6082 63.1578 63.9616Z" fill="black"/>
<path d="M23.7987 47.7863C25.6293 51.6822 28.4743 54.9863 31.8635 57.6C31.9872 57.6986 31.8635 57.8959 31.715 57.8219C28.6969 56.3918 26.1488 53.9507 24.6398 50.9918C24.1451 50.0055 23.7245 48.9452 23.5761 47.8356C23.5266 47.7123 23.7245 47.663 23.7987 47.7863Z" fill="black"/>
<path d="M52.7676 48.6C52.8418 52.7178 51.1596 56.9342 47.9436 59.5973C47.8694 59.6712 47.7704 59.6466 47.6962 59.5726C47.622 59.4986 47.6467 59.4 47.7209 59.326C48.4383 58.6356 49.1558 57.9206 49.7 57.0822C50.838 55.4548 51.5307 53.5315 51.8523 51.5836C52.0007 50.6219 52.0997 49.5863 52.0254 48.6247C52.0007 48.1562 52.7429 48.1069 52.7676 48.6Z" fill="black"/>
<path d="M38.1965 58.389C37.6275 60.3863 37.1575 62.5562 37.4296 64.6274C37.5038 65.0959 36.7864 65.2192 36.6874 64.726C36.5638 63.5918 36.7122 62.4822 36.9101 61.3973C37.1327 60.3123 37.4049 59.2767 37.7759 58.2411C37.8749 57.9945 38.2955 58.1178 38.1965 58.389Z" fill="black"/>
<path d="M46.0634 58.0192C46.8798 59.7699 47.4488 61.5945 47.8941 63.4438C47.9436 63.6411 47.8199 63.8384 47.622 63.8877C47.4241 63.937 47.2261 63.8137 47.1767 63.6164C46.9293 62.2356 46.6077 60.8548 46.1624 59.4986C46.014 59.0548 45.8655 58.611 45.6924 58.1671C45.5934 57.9452 45.9397 57.7726 46.0634 58.0192Z" fill="black"/>
<path d="M19.4941 45.6658C20.4094 50.6466 23.9223 54.863 28.1526 57.5507C29.5875 58.463 31.1213 59.2521 32.7046 59.8932C32.8035 59.9425 32.853 60.0411 32.8035 60.1397C32.7788 60.2384 32.6551 60.2877 32.5809 60.2384C30.9481 59.6466 29.3648 58.9069 27.8805 58.0192C24.8624 56.2438 22.2154 53.7781 20.4342 50.7699C19.5188 49.2164 18.8014 47.589 18.4551 45.8137C18.4056 45.5178 18.6035 45.2466 18.9004 45.1973C19.1725 45.1233 19.4694 45.3452 19.4941 45.6658Z" fill="black"/>
<path d="M36.7122 65.1699C36.0195 65.0959 35.5247 64.4548 35.6731 63.7644L35.9453 62.4575C36.0442 61.9397 36.539 61.5699 37.0585 61.6438C37.578 61.6932 37.9986 62.137 37.9986 62.6795V64.011C38.0233 64.7014 37.4296 65.2438 36.7122 65.1699Z" fill="black"/>
<path d="M48.1168 64.2575C47.4488 64.5041 46.7314 64.1096 46.5582 63.4192L46.2366 62.1123C46.1129 61.5945 46.385 61.0767 46.9046 60.8795C47.3993 60.7068 47.9683 60.9288 48.191 61.3973L48.7847 62.6055C49.0816 63.2712 48.7847 64.0356 48.1168 64.2575Z" fill="black"/>
<path d="M27.2373 44.7781C26.891 43.7918 26.7425 42.7808 26.8168 41.7452C26.8168 41.6466 26.891 41.5973 26.9899 41.5973C27.0642 41.5973 27.1384 41.6712 27.1384 41.7452C27.2126 42.6822 27.4847 43.6438 27.93 44.4575C28.1527 44.9507 27.4105 45.2712 27.2373 44.7781Z" fill="black"/>
<path d="M43.9606 46.0849C43.2679 44.5315 41.561 43.7425 40.0519 43.2C39.1118 42.9041 38.0728 42.6822 37.0833 42.5342C34.6836 42.1644 31.2944 41.5973 28.8948 41.3507C28.87 41.3507 28.87 41.3014 28.8948 41.3014C29.5875 41.2274 30.2801 41.2274 30.9728 41.2274C33.0509 41.2767 35.1289 41.4986 37.1822 41.8192C39.2355 42.1397 41.4373 42.7562 42.9958 44.2356C43.4906 44.7534 43.9359 45.3452 44.0596 46.0603C44.0843 46.1342 43.9854 46.1589 43.9606 46.0849Z" fill="black"/>
<path d="M43.8345 54.8805C43.315 57.4202 39.9505 58.949 34.2854 56.6559C28.3976 54.2887 25.8495 48.6422 25.2063 46.9654C28.6945 40.4559 26.2701 35.9435 26.2701 35.9435C34.3101 35.2531 41.3359 44.623 41.3359 44.623L42.4244 49.2586C42.5234 49.6531 42.7213 49.9983 43.0181 50.2449C43.5377 51.1572 44.1561 53.2531 43.8345 54.8805Z" fill="white"/>
<path d="M25.0826 47.0394C25.5526 46.3244 25.8495 45.486 26.0474 44.6723C26.4185 42.9709 26.5422 41.2449 26.5669 39.5189V38.8778C26.4927 38.2367 26.27 37.5709 26.0226 36.9792C25.701 36.1901 26.8638 35.697 27.2348 36.486C27.2843 36.5846 27.2843 36.7572 27.2843 36.8559C27.3585 40.2093 27.507 44.5244 25.3794 47.3107C25.231 47.4586 24.9341 47.2367 25.0826 47.0394Z" fill="black"/>
<path d="M41.608 44.5739C41.9791 44.7958 42.1028 45.0917 42.1523 45.3876C42.3007 45.9794 42.2513 46.6205 42.3997 47.2369C42.5234 47.8287 42.8945 48.3958 42.9934 49.0123C43.1171 49.6534 43.4882 51.0095 43.6366 51.6753C43.6861 51.8232 43.5871 51.9958 43.414 52.0205C43.315 52.0452 43.2408 52.0205 43.1666 51.9712C42.845 51.6999 42.6965 51.4287 42.4986 51.0835C42.177 50.4917 41.9544 49.9493 41.7565 49.2835C41.5833 48.6917 41.6575 48.0506 41.5091 47.4342C41.3854 46.8424 41.0391 46.2753 40.9154 45.6588C40.8411 45.363 40.8164 45.0424 41.0391 44.6725C41.1875 44.5246 41.4349 44.4753 41.608 44.5739Z" fill="black"/>
<path d="M43.3892 51.0835C38.6641 50.8369 34.8048 49.3575 31.0446 42.6753C34.2111 45.4616 37.9466 46.5219 41.8801 47.015L42.3996 49.2835C42.4986 49.678 43.0923 50.8369 43.3892 51.0835Z" fill="black"/>
<path d="M43.1913 50.1712C44.0324 51.7493 44.5272 53.7219 44.0077 55.4725C43.6119 56.7054 42.4739 57.6178 41.237 57.963C38.3673 58.7273 35.0523 57.5191 32.5042 56.163C29.3624 54.4123 27.037 51.478 25.5527 48.2725C25.4537 48.026 25.8 47.8287 25.9485 48.0753C26.468 49.1109 27.0617 50.1219 27.7297 51.0342C28.3976 51.9712 29.1645 52.8342 30.0304 53.5986C32.5537 55.8671 35.9676 57.2725 39.3816 57.2725C42.8945 57.1739 44.2304 55.3246 43.414 51.9219C43.2903 51.3794 43.0924 50.8123 42.8203 50.3438C42.6718 50.1465 43.0429 49.9246 43.1913 50.1712Z" fill="black"/>
<path d="M52.7652 20.5574C53.2105 22.6286 52.8641 24.0094 52.6662 29.7298C50.39 39.1983 50.5634 44.4504 49.3018 45.7079C48.3122 46.6942 42.3997 47.9767 38.0209 46.8671C35.7944 46.2999 33.9143 45.0175 32.3805 44.1052C30.4509 42.9463 28.9913 39.1737 27.6059 36.8805C26.5174 35.0805 26.3937 37.4476 24.9836 35.8942C23.0292 33.7737 20.679 29.5079 21.8417 21.9628C23.7219 9.7327 33.4443 8.30256 40.6432 9.65873C47.8669 11.0149 51.5777 15.108 52.7652 20.5574Z" fill="white"/>
<path d="M26.1959 38.0643C25.33 36.6342 24.093 35.4506 23.3014 33.9712C20.9017 29.4835 20.407 24.0341 21.7923 19.1519C24.6867 8.74639 35.176 7.21765 44.2798 10.2752C49.376 12.0012 52.9631 16.2916 53.4826 21.6916C53.5321 23.4177 53.0868 25.0205 53.0621 26.7219C52.9384 31.2095 51.5283 35.5246 50.984 39.8397C50.8603 41.1958 50.8603 42.626 50.6624 44.0068C50.6129 44.3027 50.5634 44.5739 50.4645 44.8945C50.2418 45.5602 49.7471 46.0287 49.2028 46.3986C47.1495 47.6561 44.8241 47.878 42.4986 48.0013C37.6499 48.1986 33.3948 46.7931 30.5004 42.7739C30.4014 42.626 30.5993 42.4534 30.723 42.6013C33.9638 46.0534 37.8478 47.163 42.4492 46.941C44.4035 46.8424 48.5844 46.4725 49.4502 44.5739C49.8708 43.0205 49.8708 41.3931 50.1182 39.7657C50.3903 37.8424 51.1324 35.1547 51.5777 33.2561C52.0725 31.1109 52.4931 28.941 52.5178 26.7465C52.5425 25.6369 52.5425 24.5272 52.5425 23.4177C52.592 22.3081 52.3694 21.3464 52.0972 20.2861C51.1077 16.0697 48.0648 12.5683 43.9582 11.0149C39.9258 9.46149 35.2502 9.06697 31.1188 10.4231C26.9133 11.7546 24.0435 15.3546 22.955 19.5464C22.386 21.6177 22.0892 23.7875 21.9408 25.9328C21.8171 28.1027 22.0397 30.3219 22.9056 32.3438C23.524 33.8725 24.5383 35.2041 25.7258 36.3136L26.8885 37.5219C27.4328 38.015 26.5917 38.6561 26.1959 38.0643Z" fill="black"/>
<path d="M29.115 30.2232C29.115 30.2232 28.3481 26.5246 24.7362 26.9684C21.6191 27.363 20.5306 34.8095 27.6059 36.8808" fill="white"/>
<path d="M27.2843 33.6506C26.7153 33.3301 26.3195 32.7876 26.2948 32.1219C26.3195 31.6287 26.3937 31.0616 26.27 30.5684C26.1958 30.0999 25.7011 29.9767 25.33 30.0013C24.9342 30.0753 24.6868 30.5684 24.6126 30.963C24.6126 30.9876 24.5878 31.0616 24.5878 31.0862C24.5631 31.2095 24.3652 31.2095 24.3157 31.0862C23.9941 30.1246 24.7115 29.0643 25.7505 29.1876C27.2101 29.2862 27.408 30.815 27.1359 31.9739C26.9875 32.4671 27.1854 32.9109 27.4575 33.3301L27.507 33.4041C27.6307 33.552 27.4328 33.7493 27.2843 33.6506Z" fill="black"/>
<path d="M45.4865 28.4486C45.8576 30.1993 46.5503 31.8267 47.4161 33.3555C48.183 35.2294 46.204 37.0048 44.4475 36.9308C44.2496 36.9308 44.2249 36.6596 44.398 36.6103C45.5113 36.2651 46.5256 35.5253 46.6987 34.3911C46.7729 34.0459 46.674 33.75 46.5008 33.4541C45.6844 31.9253 45.1897 30.1747 45.3134 28.4486C45.3134 28.3253 45.4865 28.3253 45.4865 28.4486Z" fill="black"/>
<path d="M28.991 30.2479C28.422 28.7931 27.1851 27.4123 25.5276 27.4369C25.3792 27.4123 25.1318 27.4613 24.9833 27.4613C24.5629 27.486 24.2166 27.6342 23.895 27.9301C22.3117 29.5082 22.5838 32.2945 23.8702 34.0451C24.3155 34.6616 24.8844 35.2041 25.5276 35.6479C26.1708 36.0917 26.8882 36.4369 27.6551 36.7328C27.8283 36.7821 27.7541 37.0534 27.5809 37.0287C25.9234 36.6835 24.3403 35.8698 23.2518 34.5136C21.5695 32.4917 21.2232 29.1136 23.227 27.141C23.6723 26.7465 24.2908 26.4506 24.9091 26.4506C25.107 26.4506 25.4039 26.4013 25.6018 26.4506C26.6408 26.4999 27.6304 27.0175 28.2736 27.8312C28.8426 28.5216 29.1642 29.3602 29.2631 30.1986C29.2631 30.3465 29.0405 30.3958 28.991 30.2479Z" fill="black"/>
<path d="M36.4315 8.88199C21.811 8.5861 20.3267 20.7916 21.242 28.0655C22.2563 36.1531 27.105 39.3339 27.105 39.3339L27.4266 37.1887C27.4266 37.1887 26.2639 36.7942 25.1507 35.9805C21.2915 33.0709 22.479 27.7696 25.1012 27.449C27.7235 27.1038 28.8615 29.0024 29.2573 30.0381C30.6426 25.4764 28.6883 24.3423 30.6426 21.1121C36.7531 14.5286 41.0081 18.9669 44.0015 19.8299C47.267 20.7423 49.4193 19.7066 50.6315 18.5477C51.4973 17.7094 52.6106 19.2875 52.6106 19.2875C52.6106 19.2875 51.0026 9.17788 36.4315 8.88199Z" fill="black"/>
<path d="M45.9622 41.0809C44.379 42.585 41.3856 41.3768 40.5939 39.5522C40.495 39.3303 40.7424 39.133 40.9403 39.2316C41.3608 39.4535 41.7319 39.6755 42.1277 39.8481C43.2657 40.3659 44.4532 40.785 45.7148 40.6618C45.9622 40.6124 46.1354 40.9083 45.9622 41.0809Z" fill="black"/>
<path d="M39.1124 29.6657C39.1124 29.6904 39.1124 29.715 39.1124 29.715L39.0876 30.4055C39.0629 30.9972 38.5681 31.4411 37.9744 31.4164C37.3807 31.3918 36.9354 30.8739 36.9848 30.3068L37.0096 29.6164C37.0096 29.4931 37.0591 29.3452 37.1085 29.2466L39.0876 29.3452C39.0876 29.4438 39.1124 29.5424 39.1124 29.6657Z" fill="black"/>
<path d="M49.4531 30.2082L49.4284 30.8493C49.4036 31.3918 48.9336 31.8109 48.3894 31.7863C47.8451 31.7616 47.4245 31.2931 47.4493 30.7507L47.474 30.1096C47.474 29.9863 47.4988 29.863 47.5482 29.7644L49.4036 29.8383C49.4284 29.9616 49.4531 30.0849 49.4531 30.2082Z" fill="black"/>
<path d="M41.5863 26.2876C42.1305 26.3616 42.5511 25.7945 42.3532 25.252C42.2542 24.9561 42.081 24.6849 41.8089 24.5124C40.9678 23.9946 37.826 23.9453 36.1685 25.1287C34.6842 26.2137 39.1124 25.9424 41.5863 26.2876Z" fill="black"/>
<path d="M48.4389 26.5589C47.9936 26.5589 47.7215 25.9918 47.9441 25.5233C48.0678 25.2767 48.241 25.0548 48.4884 24.9315C49.2553 24.5617 51.3086 24.7835 52.2239 26.0411C53.0403 27.1507 50.4922 26.5342 48.4389 26.5589Z" fill="black"/>
<path d="M40.6957 29.6657L36.6138 29.5918C36.1191 29.5671 36.1438 28.8274 36.6386 28.852L40.7204 29.1479C41.0668 29.1726 41.042 29.6657 40.6957 29.6657Z" fill="black"/>
<path d="M50.4921 30.0849L47.4743 30.1342C46.9795 30.1342 46.9545 29.4192 47.4493 29.3945C47.474 29.3945 47.474 29.3945 47.4988 29.3945L50.5171 29.715C50.7398 29.7397 50.7148 30.0602 50.4921 30.0849Z" fill="black"/>
</g>
</g>
<defs>
<clipPath id="clip0_214_8">
<rect width="71" height="72" fill="white"/>
</clipPath>
</defs>
</svg>
