<svg width="454" height="588" viewBox="0 0 454 588" fill="none" xmlns="http://www.w3.org/2000/svg">
<path d="M438.844 249.274C438.844 373.465 341.474 473.886 221.672 473.886C101.87 473.886 4.5 373.465 4.5 249.274C4.5 125.083 101.87 24.6619 221.672 24.6619C341.474 24.6619 438.844 125.083 438.844 249.274Z" stroke="white" stroke-width="9"/>
<path d="M405.15 249.274C405.15 354.232 322.865 439.061 221.672 439.061C120.479 439.061 38.1942 354.232 38.1942 249.274C38.1942 144.316 120.479 59.4869 221.672 59.4869C322.865 59.4869 405.15 144.316 405.15 249.274Z" stroke="white" stroke-width="9"/>
<path d="M372.786 249.274C372.786 335.758 304.991 405.611 221.672 405.611C138.353 405.611 70.5583 335.758 70.5583 249.274C70.5583 162.79 138.353 92.9373 221.672 92.9373C304.991 92.9373 372.786 162.79 372.786 249.274Z" stroke="white" stroke-width="9"/>
<path d="M339.092 249.274C339.092 316.524 286.382 370.786 221.672 370.786C156.962 370.786 104.252 316.524 104.252 249.274C104.252 182.024 156.962 127.762 221.672 127.762C286.382 127.762 339.092 182.024 339.092 249.274Z" stroke="white" stroke-width="9"/>
<path d="M310.718 249.274C310.718 300.328 270.712 341.459 221.672 341.459C172.632 341.459 132.626 300.328 132.626 249.274C132.626 198.22 172.632 157.089 221.672 157.089C270.712 157.089 310.718 198.22 310.718 249.274Z" stroke="white" stroke-width="9"/>
<path d="M280.57 249.274C280.57 283.119 254.062 310.3 221.672 310.3C189.282 310.3 162.774 283.119 162.774 249.274C162.774 215.429 189.282 188.248 221.672 188.248C254.062 188.248 280.57 215.429 280.57 249.274Z" stroke="white" stroke-width="9"/>
<path d="M254.857 249.274C254.857 268.441 239.861 283.723 221.672 283.723C203.484 283.723 188.488 268.441 188.488 249.274C188.488 230.107 203.484 214.825 221.672 214.825C239.861 214.825 254.857 230.107 254.857 249.274Z" stroke="white" stroke-width="9"/>
<rect x="207.042" width="11.527" height="40.3237" fill="#121212"/>
<rect x="214.135" y="423.399" width="11.527" height="40.3237" fill="#121212"/>
<rect x="214.135" y="326.256" width="11.527" height="28.4099" fill="#121212"/>
<rect x="215.909" y="202.535" width="11.527" height="28.4099" fill="#121212"/>
<rect x="239.849" y="255.231" width="11.9138" height="27.4874" transform="rotate(-90 239.849 255.231)" fill="#121212"/>
<rect x="151.18" y="255.231" width="11.9138" height="27.4874" transform="rotate(-90 151.18 255.231)" fill="#121212"/>
<rect x="57.6348" y="255.231" width="11.9138" height="27.4874" transform="rotate(-90 57.6348 255.231)" fill="#121212"/>
<rect width="11.7752" height="27.825" transform="matrix(0.589128 -0.808039 0.788944 0.614465 87.7822 152.481)" fill="#121212"/>
<rect width="11.582" height="28.2823" transform="matrix(0.922775 -0.385339 0.364078 0.931369 168.876 125.63)" fill="#121212"/>
<rect width="11.6133" height="28.2092" transform="matrix(0.876381 0.481619 -0.457459 0.889231 292.936 97.2071)" fill="#121212"/>
<rect width="11.8065" height="27.7495" transform="matrix(0.517373 0.85576 -0.840036 0.54253 419.596 126.022)" fill="#121212"/>
<rect width="11.7422" height="27.9042" transform="matrix(-0.656865 0.754008 -0.732044 -0.681258 399.859 398.9)" fill="#121212"/>
<rect width="11.8351" height="27.68" transform="matrix(-0.442169 0.896932 -0.884805 -0.465962 373.411 318.876)" fill="#121212"/>
<rect width="11.788" height="27.7942" transform="matrix(-0.560877 -0.827899 0.810107 -0.586282 34.8411 387.24)" fill="#121212"/>
<rect width="11.8556" height="27.6302" transform="matrix(0.3799 -0.925027 0.915746 0.401757 13.4049 152.261)" fill="#121212"/>
<rect x="324.528" y="255.231" width="11.9138" height="27.4874" transform="rotate(-90 324.528 255.231)" fill="#121212"/>
<rect x="426.054" y="255.231" width="11.9138" height="27.4874" transform="rotate(-90 426.054 255.231)" fill="#121212"/>
<path d="M83.226 543.178C83.226 545.31 81.744 546.376 78.78 546.376C74.724 546.376 70.46 544.27 65.988 540.058C61.568 535.846 58.422 531.452 56.55 526.876C55.718 529.372 55.146 531.062 54.834 531.946C54.522 532.83 54.054 534.234 53.43 536.158C52.806 538.082 52.312 539.512 51.948 540.448C51.636 541.384 51.272 542.372 50.856 543.412C50.076 545.388 49.322 546.376 48.594 546.376C47.398 546.376 45.942 545.388 44.226 543.412C42.562 541.384 41.73 539.746 41.73 538.498C41.73 537.25 42.328 534.936 43.524 531.556C47.06 521.208 49.088 511.77 49.608 503.242C48.62 502.462 47.736 501.37 46.956 499.966C46.176 498.562 45.786 497.392 45.786 496.456C45.786 494.896 47.788 493.258 51.792 491.542C55.848 489.826 60.502 488.968 65.754 488.968C71.058 488.968 75.478 490.216 79.014 492.712C82.55 495.208 84.318 498.458 84.318 502.462C84.318 505.426 83.434 508.286 81.666 511.042C79.95 513.746 78.052 515.878 75.972 517.438C73.944 518.946 72.046 520.324 70.278 521.572C68.562 522.82 67.704 523.626 67.704 523.99C67.704 525.238 68.12 526.434 68.952 527.578C69.784 528.67 70.954 529.97 72.462 531.478C73.97 532.934 75.27 534.182 76.362 535.222C77.454 536.21 78.338 537.042 79.014 537.718C79.742 538.394 80.444 539.096 81.12 539.824C82.524 541.176 83.226 542.294 83.226 543.178ZM72.306 503.242C72.306 501.058 70.174 499.966 65.91 499.966C63.882 499.966 61.464 500.538 58.656 501.682C59.956 503.658 60.606 505.478 60.606 507.142C60.606 510.158 60.19 513.486 59.358 517.126C59.93 516.71 60.996 515.982 62.556 514.942C64.116 513.85 65.312 512.992 66.144 512.368C67.028 511.692 68.016 510.834 69.108 509.794C71.24 507.766 72.306 505.582 72.306 503.242ZM122.74 520.402C122.74 522.95 120.998 525.238 117.514 527.266C114.082 529.294 110.546 530.308 106.906 530.308C103.266 530.308 100.276 530.048 97.9357 529.528C97.4677 530.932 97.2337 532.336 97.2337 533.74C97.2337 535.144 97.4677 536.158 97.9357 536.782C98.4037 537.354 99.5737 537.64 101.446 537.64C105.346 537.64 108.674 537.276 111.43 536.548C114.238 535.82 115.694 535.456 115.798 535.456C117.93 535.456 118.996 536.158 118.996 537.562C118.996 539.59 117.306 541.514 113.926 543.334C110.598 545.154 106.724 546.064 102.304 546.064C97.9357 546.064 94.4257 544.686 91.7737 541.93C89.1217 539.174 87.7957 535.924 87.7957 532.18C87.7957 528.384 88.8877 524.432 91.0717 520.324C93.3077 516.216 96.0897 512.784 99.4177 510.028C102.746 507.22 106.048 505.816 109.324 505.816C112.652 505.816 115.72 507.454 118.528 510.73C121.336 513.954 122.74 517.178 122.74 520.402ZM113.692 519.154C113.692 518.634 113.146 517.88 112.054 516.892C110.962 515.904 109.922 515.41 108.934 515.41C107.998 515.41 106.776 516.112 105.268 517.516C103.76 518.868 102.33 520.636 100.978 522.82C101.446 522.872 102.122 522.898 103.006 522.898C110.13 522.898 113.692 521.65 113.692 519.154ZM172.682 505.816C174.138 505.816 175.724 506.31 177.44 507.298C179.208 508.286 180.092 509.326 180.092 510.418C180.092 511.51 179.208 515.202 177.44 521.494C175.672 527.786 172.89 533.454 169.094 538.498C165.35 543.49 162.568 545.986 160.748 545.986C160.02 545.986 158.928 545.466 157.472 544.426C156.016 543.386 154.976 542.216 154.352 540.916C153.26 538.784 152.714 532.544 152.714 522.196C150.478 529.476 147.93 535.274 145.07 539.59C142.21 543.854 139.896 545.986 138.128 545.986C137.348 545.986 136.204 545.466 134.696 544.426C133.24 543.386 132.304 542.346 131.888 541.306C130.744 538.498 129.652 533.142 128.612 525.238C127.572 517.334 127.052 511.926 127.052 509.014C127.052 506.882 127.78 505.816 129.236 505.816C131.212 505.816 133.24 507.012 135.32 509.404C137.4 511.796 138.44 513.668 138.44 515.02C138.44 522.56 138.518 528.566 138.674 533.038C140.754 529.866 142.626 525.914 144.29 521.182C146.006 516.45 147.384 512.706 148.424 509.95C149.464 507.194 150.556 505.816 151.7 505.816C153.988 505.816 156.25 506.934 158.486 509.17C160.722 511.354 161.84 513.59 161.84 515.878C161.84 516.918 161.658 519.076 161.294 522.352C160.982 525.628 160.826 528.098 160.826 529.762C160.826 531.426 160.93 532.804 161.138 533.896C162.854 532.18 164.336 529.658 165.584 526.33C166.884 523.002 167.82 519.856 168.392 516.892C169.848 509.508 171.278 505.816 172.682 505.816ZM188.903 496.066C188.903 494.714 189.501 493.336 190.697 491.932C191.945 490.476 193.141 489.748 194.285 489.748C195.481 489.748 196.885 491.152 198.497 493.96C200.109 496.768 200.915 498.822 200.915 500.122C200.915 501.37 200.499 502.332 199.667 503.008C198.835 503.684 197.977 504.022 197.093 504.022C195.585 504.022 193.843 503.034 191.867 501.058C189.891 499.082 188.903 497.418 188.903 496.066ZM190.073 505.816C191.893 505.816 193.505 506.856 194.909 508.936C196.365 511.016 197.093 513.018 197.093 514.942C197.093 515.93 196.183 519.492 194.363 525.628C192.595 531.712 190.827 537.484 189.059 542.944C188.435 544.972 187.161 545.986 185.237 545.986C184.093 545.986 183.079 545.57 182.195 544.738C181.363 543.854 180.947 542.736 180.947 541.384C180.947 539.98 181.597 536.548 182.897 531.088C184.249 525.576 185.263 520.896 185.939 517.048C186.667 513.148 187.317 510.314 187.889 508.546C188.513 506.726 189.241 505.816 190.073 505.816ZM205.81 518.998L205.342 510.184C205.342 507.272 206.252 505.816 208.072 505.816C209.112 505.816 210.126 506.206 211.114 506.986C212.154 507.766 212.934 508.988 213.454 510.652C215.222 509.092 217.146 507.844 219.226 506.908C221.358 505.92 223.23 505.426 224.842 505.426C228.638 505.426 230.536 506.336 230.536 508.156C230.536 509.092 230.354 509.794 229.99 510.262C229.678 510.678 229.418 510.99 229.21 511.198C229.054 511.406 228.742 511.692 228.274 512.056C227.858 512.368 227.546 512.602 227.338 512.758C226.142 513.538 225.284 514.084 224.764 514.396C222.424 515.852 220.422 517.62 218.758 519.7C217.094 521.728 215.846 524.562 215.014 528.202C213.61 534.182 212.232 538.654 210.88 541.618C209.58 544.53 208.098 545.986 206.434 545.986C204.822 545.986 203.6 545.206 202.768 543.646C201.988 542.086 201.598 540.63 201.598 539.278C201.598 537.874 202.092 535.794 203.08 533.038C204.12 530.282 204.822 527.916 205.186 525.94C205.602 523.912 205.81 521.598 205.81 518.998ZM264.724 520.402C264.724 522.95 262.982 525.238 259.498 527.266C256.066 529.294 252.53 530.308 248.89 530.308C245.25 530.308 242.26 530.048 239.92 529.528C239.452 530.932 239.218 532.336 239.218 533.74C239.218 535.144 239.452 536.158 239.92 536.782C240.388 537.354 241.558 537.64 243.43 537.64C247.33 537.64 250.658 537.276 253.414 536.548C256.222 535.82 257.678 535.456 257.782 535.456C259.914 535.456 260.98 536.158 260.98 537.562C260.98 539.59 259.29 541.514 255.91 543.334C252.582 545.154 248.708 546.064 244.288 546.064C239.92 546.064 236.41 544.686 233.758 541.93C231.106 539.174 229.78 535.924 229.78 532.18C229.78 528.384 230.872 524.432 233.056 520.324C235.292 516.216 238.074 512.784 241.402 510.028C244.73 507.22 248.032 505.816 251.308 505.816C254.636 505.816 257.704 507.454 260.512 510.73C263.32 513.954 264.724 517.178 264.724 520.402ZM255.676 519.154C255.676 518.634 255.13 517.88 254.038 516.892C252.946 515.904 251.906 515.41 250.918 515.41C249.982 515.41 248.76 516.112 247.252 517.516C245.744 518.868 244.314 520.636 242.962 522.82C243.43 522.872 244.106 522.898 244.99 522.898C252.114 522.898 255.676 521.65 255.676 519.154ZM310.046 535.378C319.354 533.662 326.4 532.804 331.184 532.804C336.02 532.804 338.438 533.844 338.438 535.924C338.438 537.9 334.304 540.032 326.036 542.32C317.82 544.608 311.502 545.752 307.082 545.752C305.262 545.752 303.052 544.582 300.452 542.242C297.852 539.902 296.552 537.822 296.552 536.002C296.552 534.806 299.88 531.478 306.536 526.018C309.292 523.73 312.048 521.338 314.804 518.842C317.56 516.294 319.9 513.694 321.824 511.042C323.8 508.39 324.788 506.024 324.788 503.944C324.788 501.812 323.8 500.746 321.824 500.746C320.316 500.746 318.964 501.318 317.768 502.462C316.624 503.554 315.714 504.672 315.038 505.816C314.414 506.908 313.946 507.454 313.634 507.454C312.282 507.454 310.566 506.726 308.486 505.27C306.458 503.762 305.444 502.462 305.444 501.37C305.444 498.406 307.004 495.598 310.124 492.946C313.296 490.242 317.092 488.89 321.512 488.89C325.984 488.89 329.494 490.268 332.042 493.024C334.59 495.728 335.864 499.186 335.864 503.398C335.864 509.066 333.42 514.76 328.532 520.48C323.696 526.2 317.534 531.166 310.046 535.378ZM352.634 547.39C350.97 547.39 349.098 546.376 347.018 544.348C344.99 542.32 343.976 540.578 343.976 539.122C343.976 537.614 344.626 536.132 345.926 534.676C347.226 533.168 348.526 532.414 349.826 532.414C351.178 532.414 352.686 533.87 354.35 536.782C356.014 539.694 356.846 541.904 356.846 543.412C356.846 544.192 356.352 545.05 355.364 545.986C354.428 546.922 353.518 547.39 352.634 547.39ZM389.24 506.362C389.24 501.422 388.538 498.952 387.134 498.952C386.25 498.952 385.08 499.888 383.624 501.76C382.168 503.58 380.712 505.894 379.256 508.702C377.8 511.458 376.552 514.708 375.512 518.452C374.472 522.196 373.952 525.732 373.952 529.06C373.952 534.052 374.784 536.548 376.448 536.548C377.852 536.548 379.568 534.832 381.596 531.4C383.624 527.916 385.392 523.756 386.9 518.92C388.46 514.032 389.24 509.846 389.24 506.362ZM393.608 531.244C391.632 535.404 389.11 538.914 386.042 541.774C382.974 544.582 379.672 545.986 376.136 545.986C372.6 545.986 369.428 544.14 366.62 540.448C363.864 536.704 362.486 532.674 362.486 528.358C362.486 523.99 363.24 519.336 364.748 514.396C366.256 509.404 368.18 505.062 370.52 501.37C372.86 497.626 375.486 494.584 378.398 492.244C381.362 489.904 384.222 488.734 386.978 488.734C391.086 488.734 394.336 490.19 396.728 493.102C399.12 496.014 400.316 500.174 400.316 505.582C400.316 509.274 399.692 513.434 398.444 518.062C397.248 522.69 395.636 527.084 393.608 531.244Z" fill="#5DB78E"/>
</svg>
